#!OML:ASF F:\VICON\USERDATA\INSTALL\rory3\rory3.ASF
:FULLY-SPECIFIED
:DEGREES
28
root -0.09684143663134465 17.8423984921125 8.010887157704083 -1.38139035872657 -3.608703203652966 2.1288886240752296
lfemur 11.356858732192485 -3.4685005365933854 -23.480167772711408
ltibia 36.99785267772116
lfoot 3.7134384335585793 -7.494185784626035
ltoes -1.9996859879422535
rfemur -17.402168925167338 2.254295528077319 22.643797201423908
rtibia 16.88898390774716
rfoot -6.177103516702317 0.07665201960939694
rtoes 6.9348824221831125
lowerback 9.825053489927091 -1.0467051317169767 -4.082152032312001
upperback 0.1728675171213933 -1.6400156444511858 1.2130036949753382
thorax -5.30463779315519 -0.7512947500559012 3.0444694146445586
lowerneck -16.52079463365299 -2.7620771438364438 -1.6200052936967035
upperneck 21.91950509203948 -3.4277732845082394 -0.4560159453066749
head 9.751003717292834 -1.7364752852929735 -0.36919251682438653
lclavicle 6.563340694129904e-16 -1.0577713898860448e-16
lhumerus -24.4147606293913 -0.8678516243132366 80.14990012025828
lradius 31.11240671585088
lwrist 5.487000265429108
lhand -29.082378313001364 19.136257994071933
lfingers 7.12502
lthumb -2.659046540048989 48.63213229410757
rclavicle 6.563340694251411e-16 -1.0577713897736553e-16
rhumerus -35.830971536673005 -32.91390297570902 -69.74771630042689
rradius 24.70458121757154
rwrist 5.464704182418483
rhand -17.988545111438647 22.90760948056214
rfingers 7.12502
rthumb 8.122478695147514 -6.296917126625736
29
root -0.041702503402439695 17.86070642142169 8.645854042982851 -1.3056237630401275 -3.9853274401704417 2.468420507352933
lfemur 9.92630010534814 -3.2363811699330576 -23.332507573153006
ltibia 41.0860583755499
lfoot 2.727110977484495 -5.735558683061527
ltoes -2.1452881968138384
rfemur -18.431914907431615 2.558308896382526 21.84869613738089
rtibia 20.652980801007
rfoot -10.766955094951385 0.705575886907118
rtoes 5.023942924939887
lowerback 9.728045812440744 -1.1069226804174372 -4.166147290651175
upperback 0.18563834676185137 -1.6450180157985002 1.214335565548921
thorax -5.346542393859552 -0.7515309142076593 3.064235974859106
lowerneck -16.519503396711524 -2.807295840822583 -1.5575484185300528
upperneck 21.753753663290343 -3.5188016632778156 -0.4226521937606861
head 9.690688935613663 -1.7709311063346378 -0.40051214773713684
lclavicle 6.563340694143613e-16 -1.0577713898785144e-16
lhumerus -24.95903508408196 -1.5489097834357102 80.54107765420476
lradius 29.638978444885986
lwrist 5.370488013064457
lhand -28.82626456098224 18.31575464547109
lfingers 7.12502
lthumb -2.3788196940155304 47.9437453433693
rclavicle 6.563340694248045e-16 -1.0577713897809601e-16
rhumerus -34.956029762267576 -32.197358948801835 -70.23281540080056
rradius 25.316603726703605
rwrist 6.729084023012858
rhand -17.867100366933876 23.0421668382085
rfingers 7.12502
rthumb 8.307566941492336 -6.314998610317495
30
root 0.01231293146609419 17.892670119023453 9.027829865301289 -1.1223607029033855 -4.216722084667814 2.660502124540378
lfemur 9.144670940507272 -3.093411333520515 -23.173343763198034
ltibia 44.80030553983032
lfoot 1.9201856043129482 -4.282612866520975
ltoes -0.9095907748024881
rfemur -19.449610804775016 2.7452041926862245 21.444389074115627
rtibia 24.181152769434682
rfoot -15.109164143047348 -1.0302758914213523
rtoes 3.8218432588136313
lowerback 9.751820762816223 -1.2356822854364315 -4.183576891758795
upperback 0.2301639133857226 -1.6281425241071146 1.3526054481001988
thorax -5.337083878528008 -0.7347664843403147 3.05830429474254
lowerneck -16.537951199593238 -2.857625178327205 -1.5093459334529191
upperneck 21.64234176496842 -3.6068885424782 -0.30743399072612887
head 9.637545601461797 -1.8063905432534733 -0.368330203112202
lclavicle 6.563340694130564e-16 -1.0577713898903504e-16
lhumerus -25.239511566210172 -1.54344232387336 80.80911472813295
lradius 27.848227837431104
lwrist 5.975818399343538
lhand -28.479268501990408 17.83237595187909
lfingers 7.12502
lthumb -1.9151061687419242 47.649058720212366
rclavicle 6.563340694247527e-16 -1.0577713897822457e-16
rhumerus -33.79826946623049 -30.976659208966645 -70.99426035479684
rradius 25.954692730169413
rwrist 6.304644884291689
rhand -17.844074864650718 22.445979648535033
rfingers 7.12502
rthumb 8.406719490799752 -7.225922830806751
31
root 0.06977611662410371 17.916363796476475 9.510735265659596 -1.3197750922097498 -4.716422579764824 3.3045520126368197
lfemur 8.936343973556955 -3.0522229081943646 -23.966304479998975
ltibia 47.67985681179429
lfoot 1.1055601314479455 -3.436642746691199
ltoes -2.412720244201789
rfemur -20.61019794533579 2.767951003759225 20.83492227758264
rtibia 27.320709639427605
rfoot -17.95625883731772 -4.349603202283654
rtoes 2.673432223458695
lowerback 9.846533540289792 -1.2840035838913468 -4.410829744603063
upperback 0.29543896260741115 -1.6639553574556238 1.359528926021053
thorax -5.29465588432084 -0.7456559932305798 2.987434636899503
lowerneck -16.605656597494267 -2.9103894188884523 -1.440223121077997
upperneck 21.41487235609979 -3.7038556242671943 -0.12638783447401447
head 9.534030214232597 -1.8444940259003193 -0.31563431217211746
lclavicle 6.563340694246048e-16 -1.0577713897898498e-16
lhumerus -25.67531880282872 -1.0307586078950175 80.90789168550509
lradius 25.673799368145474
lwrist 6.845574737146427
lhand -28.667132164666146 17.07189031180052
lfingers 7.12502
lthumb -1.9630860717685636 47.14174521815693
rclavicle 6.563340694301006e-16 -1.0577713897356912e-16
rhumerus -32.702796300466 -29.634087073416016 -71.74003617766702
rradius 26.435662852259156
rwrist 4.6169128594131035
rhand -17.719686424597455 22.210654189511185
rfingers 7.12502
rthumb 8.410226712003135 -7.600531417965871
32
root 0.12187994187215731 17.918527108466435 10.980974054388671 -1.8892582590794993 -5.389035743051842 3.9258527171657533
lfemur 8.646639282993284 -2.9499940801986857 -24.480131529979968
ltibia 49.08242288100114
lfoot 0.2863127058592978 -3.226437441296698
ltoes -3.353928635605624
rfemur -21.36691279557831 2.8042602962133465 20.565289217633072
rtibia 29.75093753617898
rfoot -19.76405917219688 -8.071171123575699
rtoes 2.4520758091458577
lowerback 9.939017984205469 -1.2251760406933567 -4.6255082193806185
upperback 0.3463017002209295 -1.617548493742727 1.3027369999231495
thorax -5.294577834841874 -0.7102994921641207 2.9562809912863677
lowerneck -16.608617969727792 -2.946655321064067 -1.4623177376261163
upperneck 21.20715237919361 -3.7725647707596037 0.03877507792361523
head 9.434886231494803 -1.8725835806160336 -0.24633187796064962
lclavicle 6.563340694310996e-16 -1.0577713897343184e-16
lhumerus -26.3023884222376 -0.2529490544207764 80.98047156348532
lradius 23.554371916093256
lwrist 7.681146817853918
lhand -28.89266419667285 17.408300203654886
lfingers 7.12502
lthumb -2.1950242024735074 47.39127761495056
rclavicle 6.563340694293385e-16 -1.0577713897439828e-16
rhumerus -31.676088620046436 -28.24182815390134 -72.34003633361634
rradius 26.99755135947748
rwrist 2.938413797418125
rhand -17.856384905710545 22.22599863403294
rfingers 7.12502
rthumb 8.374875880438948 -7.533632493171106
33
root 0.17934167184201824 17.914424978117495 12.587075032509293 -2.324532644694908 -5.905899353522523 3.8075860849755205
lfemur 8.072163856246835 -2.557204306277783 -24.10889039941517
ltibia 49.92208007583173
lfoot -0.7101149555969108 -3.4407912192395727
ltoes -4.575962174251697
rfemur -22.017654690289575 2.9144991328479977 20.6197868502475
rtibia 31.23683534681703
rfoot -20.807986643480305 -10.883417356240063
rtoes 2.1263752865762813
lowerback 9.980819100053328 -1.1645256001891124 -4.374210535633191
upperback 0.3566563752709583 -1.597274231195673 1.2675970235098017
thorax -5.327153802519632 -0.7198063145941552 2.8379924965337673
lowerneck -16.582398086821012 -2.977439966695346 -1.472844216419504
upperneck 20.981215778087485 -3.8381193638950974 0.2454784481060892
head 9.322913206080411 -1.8950671557105379 -0.15719077794752045
lclavicle 6.563340694311704e-16 -1.0577713897356684e-16
lhumerus -26.994256443238896 0.9798942013420184 81.09533496408487
lradius 21.79325628660416
lwrist 7.867687520083717
lhand -28.983613336642296 17.617433699845122
lfingers 7.12502
lthumb -2.251895663737123 47.597045520844844
rclavicle 6.563340694393669e-16 -1.0577713896577972e-16
rhumerus -30.778921512900535 -26.767422668183272 -72.95365123351426
rradius 27.61363362437045
rwrist 3.2261139632150995
rhand -17.829177267314776 21.68617380115268
rfingers 7.12502
rthumb 8.456779524394669 -8.105222449498012
34
root 0.217243244586908 17.923757737964525 13.596394358274267 -2.1588200957230077 -6.020150997757112 2.2038010412192968
lfemur 6.406678358882864 -1.7229741145101145 -22.002688239083582
ltibia 51.30281458711262
lfoot -1.5606301305636494 -3.596401343379519
ltoes -4.853589511198356
rfemur -22.156305763484582 3.406226053405144 21.675702283420232
rtibia 30.64818509247662
rfoot -20.85800209859937 -12.21713018059231
rtoes 0.13670087093099914
lowerback 9.970682117141939 -1.161514029376096 -3.215343370745114
upperback 0.3232364730782437 -1.5579203760117322 1.404379348189414
thorax -5.35322746584478 -0.7222735336450322 2.7368814265579564
lowerneck -16.60824986847779 -3.013193397202471 -1.4352192113697617
upperneck 20.89531084836914 -3.8965679673900744 0.2830058164129101
head 9.319781283164849 -1.9159246389440219 -0.1691549643348295
lclavicle 6.563340694326587e-16 -1.0577713897219351e-16
lhumerus -27.774303400612087 2.1637636128446553 81.20057597197484
lradius 20.482471962660632
lwrist 7.948442231733766
lhand -28.674079928595102 18.445647142456366
lfingers 7.12502
lthumb -1.9635869068520195 48.39535179426582
rclavicle 6.563340694376116e-16 -1.0577713896725392e-16
rhumerus -29.60761678140923 -24.89559716088154 -73.79800138922604
rradius 28.50135871601134
rwrist 4.422788704977728
rhand -17.77760603376426 21.646699022731884
rfingers 7.12502
rthumb 8.449564916044169 -8.285182917398274
35
root 0.235374301851202 17.93532502222214 14.23222886122111 -1.9363555783440345 -6.205263859033154 0.43271850234762166
lfemur 4.837572660501852 -0.9024797655562751 -19.678883445284445
ltibia 52.7301016446133
lfoot -2.2182846281409203 -3.411812176694063
ltoes -1.5032614856765352
rfemur -21.715227156732468 4.156111561273346 23.15347046566573
rtibia 29.118874456686648
rfoot -19.424773347544374 -11.88412687634897
rtoes -2.059590163253633
lowerback 9.95496470651221 -1.1483546579783666 -1.9822201241171364
upperback 0.338036975488656 -1.50657234058423 1.588208283346735
thorax -5.312377245676535 -0.7159936769650578 2.6895798405697056
lowerneck -16.615629519351764 -3.0629652615093534 -1.4429820856782545
upperneck 20.807261520564442 -3.962713905442184 0.3445265920568131
head 9.255666865430038 -1.9430406743393103 -0.1653818087113276
lclavicle 6.563340694296513e-16 -1.0577713897519982e-16
lhumerus -28.542060081174363 3.3946069553909135 81.2448543709498
lradius 19.664728327827905
lwrist 8.073720734023128
lhand -28.47516542281554 18.489341504193764
lfingers 7.12502
lthumb -1.7113129162988752 48.654712399189044
rclavicle 6.563340694372622e-16 -1.0577713896799572e-16
rhumerus -28.218590289981748 -22.567185361403503 -74.84482675318195
rradius 29.59010739459592
rwrist 5.884840635364834
rhand -17.820092069490514 21.626964425523113
rfingers 7.12502
rthumb 8.454804215592123 -8.234184390916512
